<?xml version="1.0" encoding="utf-8"?>
<!-- Generator: Adobe Illustrator 22.0.1, SVG Export Plug-In . SVG Version: 6.00 Build 0)  -->
<svg version="1.1" id="Layer_1" xmlns="http://www.w3.org/2000/svg" xmlns:xlink="http://www.w3.org/1999/xlink" x="0px" y="0px"
	 viewBox="0 0 1000 1000" style="enable-background:new 0 0 1000 1000;" xml:space="preserve">
<style type="text/css">
	.st0{fill:url(#SVGID_1_);}
	.st1{fill:url(#SVGID_2_);}
	.st2{fill:url(#SVGID_3_);}
	.st3{fill:url(#SVGID_4_);}
	.st4{fill:url(#SVGID_5_);}
</style>
<g>
	<g>
		
			<linearGradient id="SVGID_1_" gradientUnits="userSpaceOnUse" x1="-239.7932" y1="766.6717" x2="789.715" y2="314.2126" gradientTransform="matrix(0.7071 0.7071 -0.7071 0.7071 464.0933 29.6387)">
			<stop  offset="0" style="stop-color:#08D803"/>
			<stop  offset="1" style="stop-color:#98D400"/>
		</linearGradient>
		<path class="st0" d="M256.6,600.8c0.5-2.3-0.2-4.7-1.9-6.3l-34.1-34.1l53.6-53.6c2.3-2.3,2.7-5.9,0.9-8.6
			c-1.8-2.8-5.2-3.8-8.3-2.7l-126.8,48.8c-2.2,0.8-3.8,2.7-4.3,5c-0.5,2.3,0.2,4.7,1.9,6.3l34.1,34.1l-53.6,53.6
			c-2.3,2.3-2.7,5.9-0.9,8.6c0.3,0.4,0.6,0.8,0.9,1.1c1.9,1.9,4.8,2.6,7.4,1.6l126.8-48.8C254.6,605,256.2,603.1,256.6,600.8z"/>
	</g>
</g>
<g>
	<g>
		
			<linearGradient id="SVGID_2_" gradientUnits="userSpaceOnUse" x1="-132.669" y1="774.1828" x2="896.8392" y2="321.7238" gradientTransform="matrix(0.7071 0.7071 -0.7071 0.7071 527.4168 -123.2378)">
			<stop  offset="0" style="stop-color:#08D803"/>
			<stop  offset="1" style="stop-color:#98D400"/>
		</linearGradient>
		<path class="st1" d="M574.8,600.8c0.5-2.3-0.2-4.7-1.9-6.3l-34.1-34.1l53.6-53.6c2.3-2.3,2.7-5.9,0.9-8.6
			c-1.8-2.8-5.2-3.8-8.3-2.7l-126.8,48.8c-2.2,0.8-3.8,2.7-4.3,5c-0.5,2.3,0.2,4.7,1.9,6.3l34.1,34.1l-53.6,53.6
			c-2.3,2.3-2.7,5.9-0.9,8.6c0.3,0.4,0.6,0.8,0.9,1.1c1.9,1.9,4.8,2.6,7.4,1.6l126.8-48.8C572.8,605,574.4,603.1,574.8,600.8z"/>
	</g>
</g>
<g>
	<g>
		
			<linearGradient id="SVGID_3_" gradientUnits="userSpaceOnUse" x1="-142.9543" y1="987.0151" x2="886.5539" y2="534.5561" gradientTransform="matrix(0.7071 0.7071 -0.7071 0.7071 639.302 -393.3526)">
			<stop  offset="0" style="stop-color:#08D803"/>
			<stop  offset="1" style="stop-color:#98D400"/>
		</linearGradient>
		<path class="st2" d="M854.8,600.8c0.5-2.3-0.2-4.7-1.9-6.3l-34.1-34.1l53.6-53.6c2.3-2.3,2.7-5.9,0.9-8.6
			c-1.8-2.8-5.2-3.8-8.3-2.7l-126.8,48.8c-2.2,0.8-3.8,2.7-4.3,5c-0.5,2.3,0.2,4.7,1.9,6.3l34.1,34.1l-53.6,53.6
			c-2.3,2.3-2.7,5.9-0.9,8.6c0.3,0.4,0.6,0.8,0.9,1.1c1.9,1.9,4.8,2.6,7.4,1.6l126.8-48.8C852.8,605,854.4,603.1,854.8,600.8z"/>
	</g>
</g>
<linearGradient id="SVGID_4_" gradientUnits="userSpaceOnUse" x1="-107.6879" y1="1067.259" x2="921.8203" y2="614.8">
	<stop  offset="0" style="stop-color:#08D803"/>
	<stop  offset="1" style="stop-color:#98D400"/>
</linearGradient>
<path class="st3" d="M94.7,714c-70.2,0-70.2,42.5-70.2,64.5C24.5,927.3,179.9,941,371.7,941h256c191.7,0,347.2-26,347.2-162.5
	c0-22-6.7-64.5-69.5-64.5H94.7L94.7,714z"/>
<linearGradient id="SVGID_5_" gradientUnits="userSpaceOnUse" x1="-288.7803" y1="655.2081" x2="740.7278" y2="202.749">
	<stop  offset="0" style="stop-color:#08D803"/>
	<stop  offset="1" style="stop-color:#98D400"/>
</linearGradient>
<path class="st4" d="M516.9,57.3h-34.4c-191.7,0-457.9,118.5-457.9,310.2c0,22,6.7,64.5,69.5,64.5h810.6c70.2,0,70.2-42.5,70.2-64.5
	C974.8,175.8,708.6,57.3,516.9,57.3z M291.7,303.3c-18.3,30.6-49.9,45.3-70.5,33c-20.6-12.4-22.5-47.1-4.1-77.7
	c18.3-30.6,49.9-45.3,70.5-32.9C308.1,238,310,272.7,291.7,303.3z M499.7,348.3c-22.9,0-41.6-33.1-41.6-73.9s18.6-73.9,41.6-73.9
	c22.9,0,41.6,33.1,41.6,73.9S522.6,348.3,499.7,348.3z M778.2,336.2c-20.6,12.4-52.2-2.4-70.5-33c-18.3-30.6-16.5-65.3,4.1-77.7
	c20.6-12.4,52.2,2.4,70.5,32.9C800.6,289.1,798.8,323.9,778.2,336.2z"/>
</svg>
